<?xml version="1.0" standalone="no"?>
<!DOCTYPE svg PUBLIC "-//W3C//DTD SVG 20010904//EN"
 "http://www.w3.org/TR/2001/REC-SVG-20010904/DTD/svg10.dtd">
<svg version="1.0" xmlns="http://www.w3.org/2000/svg"
 width="444.000000pt" height="1280.000000pt" viewBox="0 0 444.000000 1280.000000"
 preserveAspectRatio="xMidYMid meet">
<metadata>
Created by potrace 1.15, written by Peter Selinger 2001-2017
</metadata>
<g transform="translate(0.000000,1280.000000) scale(0.100000,-0.100000)"
fill="#000000" stroke="none">
<path d="M4087 12494 c-9 -103 -21 -192 -26 -198 -5 -6 -14 -45 -21 -86 -7
-41 -17 -80 -22 -87 -5 -7 -9 -22 -7 -35 1 -13 -3 -34 -8 -48 -6 -14 -14 -47
-18 -75 -4 -27 -10 -54 -15 -60 -4 -5 -13 -44 -20 -85 -7 -41 -15 -79 -18 -85
-4 -5 -7 -14 -7 -20 -1 -5 -4 -17 -7 -25 -3 -8 -11 -46 -18 -85 -7 -38 -16
-74 -20 -80 -4 -5 -15 -57 -25 -115 -9 -58 -21 -109 -25 -115 -4 -5 -13 -46
-20 -90 -7 -44 -17 -85 -22 -91 -5 -7 -13 -63 -19 -125 -5 -62 -16 -126 -24
-142 -8 -17 -20 -60 -26 -96 -5 -36 -15 -75 -21 -87 -5 -12 -9 -30 -7 -40 1
-10 -1 -26 -4 -34 -3 -8 -11 -55 -18 -105 -6 -49 -15 -94 -19 -100 -5 -5 -14
-54 -20 -108 -7 -53 -16 -100 -20 -102 -5 -3 -6 -14 -3 -25 3 -11 1 -26 -4
-33 -6 -6 -13 -34 -17 -61 -3 -27 -12 -59 -20 -70 -7 -12 -21 -77 -31 -146 -9
-69 -21 -129 -25 -135 -4 -5 -13 -50 -19 -100 -7 -49 -16 -99 -21 -110 -5 -11
-16 -69 -25 -130 -9 -60 -20 -119 -24 -130 -5 -11 -15 -60 -21 -110 -7 -49
-16 -95 -21 -100 -4 -6 -6 -23 -5 -38 2 -15 0 -30 -4 -32 -4 -3 -13 -50 -20
-105 -7 -55 -16 -103 -21 -106 -5 -3 -9 -30 -9 -61 0 -55 -16 -173 -27 -203
-3 -8 -5 -25 -4 -37 1 -11 -3 -24 -8 -28 -6 -3 -11 -31 -11 -61 0 -62 -17
-189 -30 -219 -10 -23 -27 -146 -35 -254 -3 -41 -10 -80 -15 -86 -6 -7 -14
-67 -20 -135 -6 -68 -15 -128 -20 -135 -5 -7 -14 -63 -19 -126 -11 -124 -18
-173 -31 -204 -4 -11 -13 -92 -19 -179 -7 -88 -15 -164 -18 -169 -4 -6 -5 -34
-4 -63 1 -29 -2 -55 -8 -59 -6 -3 -11 -29 -11 -57 0 -55 -17 -159 -31 -193 -4
-11 -13 -83 -19 -160 -6 -77 -14 -147 -17 -155 -3 -8 -5 -32 -4 -53 2 -21 -2
-43 -7 -50 -9 -11 -13 -40 -29 -212 -3 -33 -9 -64 -13 -70 -12 -16 -19 -69
-30 -230 -6 -82 -14 -159 -19 -170 -5 -11 -14 -67 -20 -124 -6 -57 -15 -109
-20 -115 -5 -6 -14 -36 -21 -66 -12 -49 -23 -69 -41 -70 -3 0 -9 37 -12 82 -4
45 -11 86 -16 91 -5 5 -6 27 -4 48 3 22 1 50 -5 62 -6 12 -16 101 -23 197 -6
96 -15 180 -19 185 -7 9 -18 158 -22 305 -4 130 14 797 22 815 4 11 13 132 20
270 6 137 16 255 21 262 6 6 9 22 8 35 -2 13 0 28 4 34 4 7 11 64 17 128 6 64
14 124 19 134 5 9 16 53 26 97 9 44 21 87 25 96 5 9 12 45 16 80 3 35 13 75
20 89 21 39 44 118 44 149 0 15 9 36 20 46 15 14 20 31 20 74 0 54 -2 59 -42
98 -24 22 -57 48 -73 56 -17 8 -53 34 -80 56 -27 23 -54 41 -58 41 -5 0 -21 8
-35 19 -15 10 -52 26 -82 35 -30 10 -68 24 -83 32 -19 11 -40 14 -66 9 l-38
-6 -7 -67 c-4 -36 -11 -71 -15 -77 -5 -5 -16 -68 -26 -140 -10 -71 -21 -134
-25 -140 -4 -5 -13 -53 -19 -105 -7 -52 -17 -105 -23 -117 -6 -12 -8 -29 -5
-37 3 -8 2 -18 -2 -20 -5 -3 -14 -50 -21 -103 -6 -54 -15 -102 -20 -108 -4 -5
-13 -55 -20 -110 -7 -55 -17 -105 -21 -110 -5 -6 -8 -20 -8 -30 -1 -33 -36
-239 -43 -250 -3 -5 -9 -36 -13 -67 -8 -65 -15 -69 -73 -39 -34 17 -98 47
-182 84 -19 9 -71 32 -114 51 -43 20 -84 36 -91 36 -11 0 -26 -39 -30 -80 -1
-8 -5 -22 -8 -30 -3 -8 -11 -53 -18 -100 -6 -47 -15 -90 -20 -96 -5 -6 -14
-66 -19 -134 -6 -68 -14 -129 -18 -134 -3 -6 -5 -19 -4 -29 2 -10 -1 -24 -7
-31 -6 -7 -15 -68 -21 -136 -6 -68 -14 -128 -20 -135 -5 -6 -12 -45 -15 -86
-9 -109 -25 -231 -35 -254 -8 -19 -11 -49 -26 -255 -4 -47 -10 -89 -14 -95 -4
-5 -16 -66 -25 -135 -10 -69 -21 -129 -25 -135 -4 -5 -13 -53 -20 -105 -7 -52
-17 -101 -22 -107 -6 -7 -7 -20 -4 -29 4 -9 2 -22 -3 -28 -6 -7 -15 -61 -21
-121 -6 -68 -15 -114 -24 -123 -12 -12 -15 -6 -21 39 -4 30 -12 59 -17 66 -5
7 -7 17 -3 23 3 5 3 16 -2 23 -13 19 -33 80 -33 100 0 9 -4 25 -9 35 -15 26
-41 192 -41 255 0 31 -4 58 -8 61 -5 3 -14 45 -22 93 -7 48 -16 93 -20 98 -4
6 -15 125 -24 265 -10 140 -22 264 -27 275 -16 35 -30 966 -18 1200 6 116 15
215 19 220 5 6 12 114 16 241 l7 230 -39 20 c-63 33 -158 86 -172 97 -7 6 -34
21 -60 33 -26 13 -72 38 -101 55 -50 28 -56 29 -67 14 -7 -9 -17 -43 -23 -76
-5 -32 -17 -69 -26 -81 -8 -13 -15 -38 -15 -58 0 -19 -7 -48 -15 -64 -9 -16
-13 -31 -10 -34 3 -3 1 -10 -4 -16 -4 -6 -14 -56 -21 -111 -7 -55 -16 -104
-20 -110 -4 -5 -13 -55 -20 -110 -6 -55 -16 -105 -22 -112 -5 -7 -9 -22 -7
-35 1 -13 -1 -30 -4 -38 -9 -25 -27 -182 -27 -237 0 -28 -4 -54 -9 -57 -4 -3
-14 -76 -21 -161 -8 -86 -17 -158 -21 -161 -5 -2 -6 -11 -2 -19 3 -9 0 -21 -6
-28 -6 -8 -15 -58 -22 -113 -6 -54 -14 -104 -19 -109 -5 -6 -11 -35 -15 -65
-9 -84 -27 -174 -36 -184 -5 -6 -9 -27 -9 -48 0 -42 -17 -133 -30 -163 -5 -11
-16 -58 -26 -105 -9 -47 -21 -89 -25 -94 -5 -6 -9 -27 -9 -48 0 -45 -17 -135
-32 -165 -6 -12 -8 -38 -5 -57 3 -20 2 -38 -2 -41 -8 -4 -14 -50 -27 -202 -3
-38 -9 -77 -14 -88 -9 -22 -30 -304 -30 -406 0 -36 -3 -69 -6 -72 -4 -4 -6
-45 -5 -92 1 -48 -2 -92 -7 -98 -15 -19 -36 -880 -29 -1207 10 -424 18 -613
29 -627 5 -6 8 -52 7 -103 -1 -50 1 -93 5 -97 3 -3 6 -38 6 -77 0 -118 21
-390 31 -409 6 -11 15 -89 21 -175 5 -87 12 -164 15 -172 4 -8 5 -23 4 -33 -1
-10 2 -24 8 -31 6 -7 16 -85 22 -172 6 -87 15 -168 19 -179 11 -24 27 -134 34
-233 4 -40 10 -80 15 -90 13 -23 31 -149 31 -209 0 -27 4 -53 9 -59 4 -5 16
-61 26 -124 10 -63 21 -119 25 -125 4 -5 13 -48 19 -95 7 -47 17 -95 23 -107
6 -13 9 -26 5 -29 -3 -4 -2 -15 4 -25 5 -11 14 -76 19 -145 5 -69 14 -132 21
-140 13 -16 61 -19 87 -4 9 5 43 14 75 20 l57 11 0 37 c0 62 -21 346 -27 362
-4 8 -5 23 -4 33 1 10 -2 24 -7 30 -5 7 -15 52 -22 100 -8 48 -17 90 -22 93
-4 3 -8 31 -8 62 -1 31 -7 75 -15 97 -8 22 -15 49 -15 61 0 11 -4 24 -9 30 -6
5 -13 45 -17 89 -3 44 -13 94 -21 111 -8 17 -13 35 -12 40 1 5 0 16 -4 24 -3
8 -11 56 -18 105 -6 50 -15 95 -19 100 -4 6 -13 48 -20 95 -7 47 -15 89 -18
95 -3 5 -5 26 -3 46 1 21 -4 48 -12 61 -9 14 -17 61 -20 116 -3 52 -10 99 -15
105 -14 17 -22 166 -27 475 -3 151 -8 278 -11 284 -4 5 -6 64 -5 130 2 86 -2
124 -11 135 -18 22 -19 1452 -2 1474 7 8 15 70 18 139 15 295 28 466 36 485 5
11 11 54 14 95 3 41 8 111 12 155 3 44 10 90 16 102 6 12 8 29 5 37 -3 8 -2
18 3 21 6 4 10 28 10 55 0 62 20 202 31 215 4 6 11 42 14 80 10 118 27 239 35
250 4 6 13 53 20 105 7 52 16 100 20 105 4 6 15 64 24 130 10 66 24 134 32
152 8 17 14 45 14 63 0 18 6 46 14 63 8 18 17 50 20 72 18 122 25 157 34 168
5 7 12 32 16 57 21 150 27 172 44 156 4 -4 9 -333 12 -731 4 -490 9 -727 17
-737 12 -15 26 -144 26 -228 -1 -114 -16 -305 -25 -317 -5 -6 -5 -14 0 -17 5
-3 12 -88 15 -188 6 -179 22 -333 37 -353 4 -5 13 -53 20 -105 7 -52 16 -99
20 -105 4 -5 15 -66 25 -135 9 -69 21 -129 26 -134 5 -6 9 -20 9 -33 0 -21 9
-50 33 -100 5 -12 7 -29 4 -37 -3 -8 -2 -18 2 -20 5 -3 11 -27 15 -53 3 -27
13 -60 20 -75 8 -15 20 -62 26 -105 7 -43 18 -88 26 -99 7 -12 18 -53 24 -90
6 -38 15 -78 20 -89 4 -11 14 -40 21 -64 7 -24 20 -45 28 -48 9 -3 25 -9 36
-14 11 -5 43 -16 70 -24 28 -9 64 -23 82 -31 17 -8 37 -14 45 -14 7 0 22 -6
33 -14 11 -7 52 -22 92 -32 71 -18 73 -18 135 2 l63 20 16 265 c8 145 19 272
23 281 4 9 6 53 4 97 -2 45 0 81 4 81 3 0 18 -14 32 -31 20 -23 26 -42 26 -77
1 -48 25 -92 52 -92 7 0 34 -11 60 -25 26 -14 53 -25 61 -25 8 0 22 -8 31 -19
9 -10 37 -21 63 -25 25 -3 52 -11 58 -16 7 -6 48 -13 91 -17 66 -5 82 -3 93
11 7 9 19 16 26 16 10 0 15 56 20 235 4 130 11 238 16 241 5 3 9 59 9 124 0
79 4 121 12 126 14 9 48 -31 48 -58 0 -10 9 -31 20 -46 13 -18 23 -57 30 -117
6 -49 15 -94 19 -100 5 -5 12 -30 16 -55 4 -25 18 -68 31 -97 13 -28 24 -55
24 -58 0 -4 11 -21 25 -39 14 -18 25 -37 25 -43 0 -19 64 -65 130 -94 14 -6
39 -17 55 -24 66 -29 124 -37 201 -30 62 6 82 12 100 31 13 12 24 30 24 37 0
8 7 28 15 43 8 16 15 36 15 45 0 8 6 24 14 34 8 11 12 25 9 31 -2 7 0 15 6 19
6 3 11 17 11 30 0 13 5 37 11 52 6 15 15 37 20 48 4 11 10 34 13 50 9 53 31
140 37 150 4 6 12 51 18 100 7 50 17 100 23 112 6 13 9 26 5 29 -3 4 -2 15 3
25 6 10 15 73 20 140 6 67 15 127 20 134 5 7 14 67 20 134 5 68 13 127 16 133
3 5 7 37 9 71 1 34 9 96 18 137 9 41 16 102 16 136 1 33 5 64 10 70 5 5 16 61
25 124 10 63 24 131 33 150 9 19 18 55 21 80 2 25 8 50 13 56 8 10 23 136 36
304 3 41 9 80 13 85 4 6 13 53 20 105 7 52 16 100 22 107 5 6 9 38 8 70 0 32
6 92 14 133 8 41 15 102 15 135 1 34 5 65 10 70 11 13 31 150 31 215 0 27 4
51 8 54 5 3 7 18 4 34 -2 16 1 33 7 36 6 4 11 30 11 57 0 60 18 186 30 214 5
11 11 54 14 95 13 174 27 294 35 304 11 14 31 153 31 216 0 27 5 52 11 55 6 4
9 19 8 33 -2 15 0 32 4 39 4 6 12 66 17 134 6 67 14 127 18 133 5 6 14 54 21
106 7 52 15 99 18 103 3 4 6 36 8 70 4 79 33 247 45 270 6 9 14 68 20 130 10
122 17 171 30 202 4 11 14 61 20 110 7 50 16 95 20 100 5 6 11 44 15 85 9 114
27 244 35 255 4 6 13 53 20 105 7 52 17 100 22 107 5 6 8 20 6 30 -1 10 1 23
5 30 4 6 11 66 17 132 5 67 14 129 19 138 5 10 15 60 22 111 7 51 15 95 20 97
4 3 5 14 2 25 -3 11 -1 26 5 33 6 7 14 41 18 77 4 36 15 81 25 100 12 22 21
68 25 125 3 50 14 110 24 135 9 25 20 85 23 133 4 49 11 95 17 102 7 8 10 24
9 37 -2 13 0 29 4 35 5 7 13 81 18 165 6 84 15 161 20 170 10 19 13 601 3 611
-3 3 -36 -10 -72 -29 -37 -19 -71 -34 -76 -34 -5 0 -35 -13 -68 -30 -32 -16
-64 -30 -70 -30 -7 0 -22 -10 -35 -22 -13 -12 -25 -19 -28 -16 -8 8 16 231 26
243 11 11 12 285 1 285 -4 0 -15 -84 -25 -186z"/>
</g>
</svg>
