<?xml version="1.0" standalone="no"?>
<!DOCTYPE svg PUBLIC "-//W3C//DTD SVG 20010904//EN"
 "http://www.w3.org/TR/2001/REC-SVG-20010904/DTD/svg10.dtd">
<svg version="1.0" xmlns="http://www.w3.org/2000/svg"
 width="1280.000000pt" height="940.000000pt" viewBox="0 0 1280.000000 940.000000"
 preserveAspectRatio="xMidYMid meet">
<metadata>
Created by potrace 1.15, written by Peter Selinger 2001-2017
</metadata>
<g transform="translate(0.000000,940.000000) scale(0.100000,-0.100000)"
fill="#000000" stroke="none">
<path d="M11486 9376 c-19 -11 -54 -16 -105 -16 -68 0 -78 -2 -91 -22 -8 -13
-17 -39 -20 -58 -5 -32 -8 -35 -45 -40 -36 -4 -40 -8 -43 -35 -3 -27 -13 -35
-110 -83 -59 -28 -114 -52 -123 -52 -9 0 -23 -7 -30 -16 -10 -13 -27 -15 -76
-12 -35 2 -63 0 -63 -4 0 -4 4 -8 9 -8 5 0 23 -12 40 -26 25 -21 31 -33 31
-65 0 -60 -29 -69 -235 -69 -91 0 -165 -4 -165 -9 0 -9 120 -31 170 -31 16 0
38 -4 48 -9 9 -5 37 -14 62 -21 56 -15 90 -45 90 -80 0 -27 -84 -120 -108
-120 -24 0 -3 -17 29 -24 18 -3 38 -11 46 -17 25 -21 9 -99 -21 -99 -7 0 -28
-7 -46 -16 -27 -14 -51 -15 -149 -10 -64 4 -120 12 -125 17 -15 14 -121 11
-153 -5 -84 -41 -128 -56 -170 -56 -82 0 -152 -37 -153 -81 0 -9 -9 -27 -19
-40 -10 -14 -25 -40 -34 -60 -8 -19 -33 -50 -55 -67 -61 -48 -112 -42 -287 33
-16 7 -50 19 -75 26 -25 7 -55 19 -68 27 -12 8 -25 12 -28 10 -3 -3 23 -26 58
-51 125 -91 165 -153 140 -217 -7 -19 -16 -25 -38 -24 -16 1 -36 4 -44 7 -8 3
-58 11 -110 17 -52 6 -102 14 -110 17 -15 6 -239 45 -381 65 -73 11 -77 10
-108 -13 l-33 -24 177 -10 c169 -10 177 -11 194 -34 10 -13 16 -32 14 -41 -3
-10 0 -21 6 -24 18 -12 14 -172 -5 -201 -15 -23 -23 -25 -90 -25 -40 0 -75 -4
-79 -9 -3 -5 -31 -17 -62 -26 -71 -21 -187 -79 -233 -116 -19 -16 -38 -29 -43
-29 -5 0 -34 -20 -66 -45 -31 -25 -62 -45 -68 -45 -6 0 -13 -7 -17 -15 -3 -8
-10 -15 -16 -15 -5 0 -36 -19 -67 -42 -69 -51 -128 -81 -203 -103 -30 -9 -63
-21 -73 -26 -10 -5 -46 -12 -80 -15 -56 -5 -65 -3 -96 20 -29 22 -45 26 -95
25 -52 -1 -56 -2 -26 -8 19 -4 50 -15 68 -24 29 -16 32 -22 32 -63 0 -33 -4
-46 -17 -51 -10 -4 -41 -24 -70 -45 -29 -21 -55 -38 -59 -38 -3 0 -35 -20 -71
-45 -35 -25 -66 -45 -69 -45 -3 0 -34 -20 -68 -45 -35 -25 -66 -45 -69 -45 -4
0 -54 -32 -112 -71 -100 -68 -106 -71 -120 -53 -7 11 -16 30 -18 44 -3 14 -11
39 -18 55 -7 17 -13 33 -13 37 -1 3 -4 10 -9 14 -4 4 -7 14 -7 23 0 8 -9 33
-19 55 -11 23 -24 59 -30 82 -14 52 -179 218 -228 228 -17 4 -37 14 -44 22 -6
8 -17 14 -25 14 -7 0 -14 10 -16 22 -4 31 -49 39 -174 31 -100 -6 -101 -5
-126 21 -28 31 -45 28 -114 -19 -37 -25 -43 -26 -125 -20 l-85 7 -46 -51 -46
-51 -95 0 c-89 0 -128 -10 -92 -24 10 -4 15 -20 15 -54 0 -55 -15 -73 -90
-108 -25 -12 -70 -33 -100 -47 -30 -14 -62 -28 -70 -31 -12 -3 -11 -5 2 -5 20
-1 68 -60 68 -84 0 -20 -47 -57 -71 -57 -26 0 -24 -6 16 -41 19 -17 35 -38 34
-48 0 -9 -19 -52 -42 -96 l-42 -80 -73 3 -72 3 0 -32 c0 -57 -23 -99 -94 -171
l-70 -71 -85 -11 c-80 -10 -88 -13 -122 -49 -26 -26 -40 -51 -44 -79 -9 -50
-42 -83 -93 -93 -20 -3 -53 -14 -72 -24 -19 -10 -59 -24 -88 -30 -28 -7 -54
-17 -57 -22 -3 -5 -25 -13 -48 -19 -23 -6 -55 -17 -72 -25 -16 -7 -70 -27
-120 -44 l-90 -30 52 -1 c28 0 55 -4 58 -10 10 -15 119 -12 151 5 30 15 108
20 162 9 17 -3 45 -19 63 -34 l33 -27 -32 -37 c-18 -20 -32 -41 -32 -46 0 -5
-5 -21 -12 -37 -6 -15 -12 -30 -13 -33 -20 -82 -43 -120 -114 -190 -63 -62
-87 -79 -136 -95 -33 -11 -69 -25 -80 -32 -13 -9 -56 -13 -127 -13 -108 0
-108 0 -108 -24 0 -14 4 -27 9 -30 5 -3 7 -15 4 -26 -3 -11 0 -27 7 -35 10
-13 10 -19 -3 -33 -8 -9 -19 -30 -22 -47 -7 -27 -99 -135 -117 -135 -4 0 -29
-15 -55 -32 -26 -18 -77 -48 -113 -66 -56 -28 -78 -33 -168 -39 -88 -5 -112
-11 -156 -34 -49 -26 -99 -54 -176 -96 -19 -10 -57 -32 -85 -48 -166 -98 -168
-99 -290 -105 l-110 -5 -3 -29 c-2 -16 1 -33 7 -39 16 -16 -34 -37 -88 -37
-41 0 -71 -12 -71 -30 0 -3 73 -2 162 1 90 4 220 7 291 8 l127 1 11 -27 c6
-16 8 -54 5 -88 -6 -58 -8 -62 -71 -124 -36 -35 -65 -65 -65 -67 0 -2 9 -4 20
-4 27 0 70 -43 70 -70 0 -12 -27 -55 -60 -95 -33 -40 -60 -77 -60 -82 0 -5
-11 -20 -25 -33 -31 -29 -43 -100 -24 -138 15 -31 19 -80 8 -103 -5 -9 -41
-33 -81 -54 -40 -20 -104 -55 -143 -76 -38 -21 -101 -54 -139 -74 -38 -19 -72
-38 -75 -42 -3 -5 -40 -25 -81 -46 -41 -21 -111 -58 -155 -82 -44 -25 -102
-56 -130 -70 -27 -14 -88 -47 -135 -74 -47 -27 -121 -68 -165 -91 -44 -22
-116 -61 -160 -85 -44 -24 -106 -58 -139 -74 -32 -17 -63 -35 -70 -40 -6 -5
-43 -25 -81 -45 -70 -36 -71 -37 -67 -73 l5 -36 66 6 c45 4 85 15 128 36 34
17 69 31 78 31 8 0 24 5 35 12 16 10 23 9 45 -12 28 -26 28 -58 2 -119 -6 -14
-12 -30 -12 -36 -1 -5 -7 -23 -13 -38 -7 -16 -12 -34 -12 -41 0 -25 -41 -65
-93 -91 -101 -52 -286 -153 -303 -166 -6 -5 -44 -26 -85 -47 -41 -22 -101 -54
-134 -72 -33 -18 -73 -35 -88 -39 l-29 -6 23 -29 c20 -26 26 -28 67 -22 25 3
55 12 66 19 12 7 41 19 66 27 25 8 54 19 65 26 11 6 38 17 60 24 22 7 45 16
50 20 6 4 36 15 67 24 32 10 60 21 63 26 3 4 17 11 32 15 16 3 43 14 61 22 41
20 71 7 91 -38 14 -32 13 -37 -24 -109 -12 -23 -45 -45 -150 -100 -22 -12 -60
-34 -85 -50 -25 -16 -63 -38 -86 -48 -38 -18 -40 -21 -36 -57 4 -36 6 -37 37
-32 18 3 54 22 80 42 26 20 62 42 80 49 18 8 36 19 39 25 13 21 81 13 104 -12
21 -23 22 -30 22 -294 0 -184 -4 -281 -12 -300 -6 -15 -12 -30 -13 -33 -5 -16
-20 -50 -35 -85 -10 -22 -26 -62 -35 -90 -9 -27 -20 -54 -24 -60 -4 -5 -14
-30 -21 -55 -7 -25 -17 -50 -22 -56 -4 -6 -15 -31 -23 -55 -8 -24 -22 -57 -29
-74 -28 -60 -40 -90 -41 -100 -1 -27 -49 -87 -103 -131 -51 -41 -61 -54 -61
-81 l-1 -32 58 -3 c71 -4 99 10 198 96 41 36 87 68 102 72 15 3 35 9 44 15 10
5 40 9 68 9 43 0 54 -4 82 -33 18 -18 48 -61 66 -95 28 -53 32 -70 32 -137 l0
-77 -69 -70 c-38 -38 -72 -82 -76 -96 -3 -15 -18 -39 -32 -54 -15 -15 -24 -30
-21 -33 5 -6 148 158 148 170 0 3 48 63 107 132 60 68 110 130 112 136 4 13
100 127 116 140 54 40 101 57 175 63 51 4 84 3 92 -4 20 -16 14 -71 -13 -127
-6 -11 21 12 59 51 43 44 74 86 82 110 7 22 21 50 31 63 11 13 19 28 19 34 0
5 20 33 45 62 39 46 50 53 92 59 29 4 66 1 93 -7 39 -11 45 -17 48 -43 4 -37
-20 -94 -57 -136 -15 -18 -33 -43 -40 -55 -12 -23 -164 -143 -181 -143 -6 0
-10 -18 -10 -40 0 -39 1 -40 33 -40 21 0 41 8 52 20 10 11 22 20 27 20 5 0 40
25 77 55 l68 55 82 0 c82 0 83 0 141 45 32 25 61 45 65 45 3 0 43 29 89 64
l82 63 167 8 c92 4 170 11 173 16 3 5 42 9 87 9 88 0 80 -3 269 107 21 13 57
34 81 48 58 34 105 61 152 90 22 13 58 34 80 45 22 11 60 32 84 46 l43 24 40
-36 c37 -33 44 -36 84 -30 24 3 52 10 61 16 21 11 138 50 152 50 6 0 26 -14
45 -31 34 -29 56 -32 56 -6 0 7 9 23 20 37 11 14 20 33 20 43 0 14 9 17 44 17
52 0 61 -10 120 -130 21 -41 45 -83 53 -92 20 -22 56 -23 73 -3 7 8 19 15 26
15 8 0 22 4 32 10 9 5 52 14 96 19 89 11 126 35 126 82 0 15 4 30 9 33 4 3 11
20 15 37 3 17 19 47 36 66 16 18 30 42 30 53 0 10 5 22 10 25 20 13 9 67 -24
118 -18 29 -37 62 -40 73 -11 35 -36 51 -134 83 -112 37 -122 38 -160 6 -17
-14 -44 -28 -61 -31 -28 -6 -42 3 -165 110 l-135 117 -28 -20 c-30 -22 -83
-34 -258 -57 -60 -8 -117 -18 -125 -21 -8 -3 -31 -7 -50 -8 -83 -8 -279 -41
-286 -48 -15 -14 -101 -7 -142 13 -22 11 -47 20 -55 20 -7 0 -17 3 -21 7 -4 5
-11 8 -14 8 -4 1 -29 9 -55 19 -43 17 -54 18 -116 6 -85 -16 -167 -9 -185 15
-10 15 -10 23 6 53 10 20 18 42 18 50 0 8 7 28 14 45 16 35 47 143 48 167 0 8
4 20 8 25 4 6 13 44 20 85 7 41 15 80 19 85 4 6 13 35 20 65 8 30 16 60 20 65
3 6 7 15 8 20 1 6 10 39 18 75 9 36 20 69 25 75 4 5 15 37 24 70 9 33 21 69
26 80 14 31 41 99 41 105 0 3 6 12 13 20 6 8 31 55 55 103 39 79 55 99 165
203 77 73 140 124 173 139 28 14 54 29 58 34 3 5 27 17 53 25 26 9 60 28 75
44 34 33 167 198 167 207 0 3 39 54 88 113 48 59 92 115 97 124 6 9 37 50 70
92 l60 77 92 -7 91 -6 42 86 c38 78 45 87 79 96 27 7 66 39 149 123 113 115
127 125 195 149 57 19 114 72 128 119 7 21 18 44 26 50 7 6 13 16 13 21 0 18
81 128 102 139 13 7 44 9 83 5 l63 -6 16 35 c24 50 120 150 164 170 20 10 46
26 57 36 11 10 44 21 74 25 l54 7 -6 -48 c-6 -43 -6 -46 10 -34 9 8 21 26 27
41 17 38 114 138 151 154 17 7 66 17 109 23 69 10 84 16 125 50 66 56 171 177
171 197 0 12 61 67 125 113 33 24 85 67 115 96 30 28 78 62 105 76 28 13 53
28 56 32 3 5 30 20 59 33 30 14 80 43 112 64 32 22 62 40 67 40 5 0 22 6 38
14 74 36 102 46 148 52 47 6 57 13 160 114 l110 108 73 10 c73 10 102 24 102
46 0 11 21 22 100 53 19 8 55 23 80 34 25 11 59 26 75 33 17 7 50 22 75 33 25
11 77 34 115 51 39 17 96 42 128 56 32 14 60 26 63 26 3 0 20 6 37 14 186 84
182 81 247 155 l65 73 54 -5 c47 -3 59 -9 88 -40 41 -45 43 -86 8 -133 -14
-18 -25 -35 -25 -39 0 -22 -119 -155 -139 -155 -28 0 -94 -27 -83 -34 15 -9
42 -66 42 -88 0 -10 -20 -41 -45 -67 -42 -45 -56 -71 -37 -71 9 0 82 85 82 95
0 4 35 48 78 99 43 50 87 105 97 121 11 17 54 71 97 121 43 51 78 95 78 98 0
4 33 46 73 95 72 85 74 90 80 154 3 36 10 74 16 84 5 10 15 39 22 66 6 26 17
47 24 47 7 0 18 6 24 14 26 31 100 -8 101 -53 1 -24 35 -61 58 -61 25 0 46 49
68 160 12 61 25 96 46 123 43 54 66 48 115 -29 10 -17 18 -13 85 54 40 39 77
72 82 72 5 0 27 8 50 19 82 37 101 44 122 42 14 -1 44 23 97 78 42 45 77 85
77 91 0 5 13 31 29 57 16 27 32 63 36 81 4 18 13 45 21 60 8 16 14 57 14 99
l0 71 31 7 c33 7 69 -15 69 -43 0 -12 13 -13 79 -7 l79 7 45 -41 c35 -33 43
-46 39 -66 -4 -24 11 -35 22 -17 3 5 44 15 91 22 47 7 88 17 91 22 7 11 191
10 198 -1 3 -4 18 -11 33 -14 16 -3 36 -9 45 -12 14 -5 17 0 20 31 2 29 9 40
33 53 17 9 61 38 97 64 37 26 70 47 73 47 16 0 95 74 95 89 1 30 26 51 63 51
20 0 39 -4 42 -10 3 -5 26 -10 51 -10 l44 0 0 44 c0 29 -7 52 -21 70 -12 16
-19 35 -16 46 3 11 1 23 -4 26 -5 3 -9 20 -9 38 0 36 31 66 69 66 11 0 23 5
26 10 4 6 10 8 15 5 5 -3 11 -1 15 5 3 5 17 10 30 10 45 0 35 19 -25 47 -46
22 -60 33 -60 50 0 12 -4 24 -9 27 -5 3 -12 27 -16 53 -4 27 -13 62 -21 79 -8
17 -14 35 -13 40 1 5 0 16 -3 24 -21 59 -25 92 -15 115 7 14 17 25 23 25 6 0
19 9 29 20 10 11 33 22 51 26 l34 6 -24 19 c-13 10 -27 19 -31 19 -4 0 -38 23
-76 50 -38 28 -71 50 -74 50 -3 0 -36 23 -74 50 -38 28 -72 50 -75 50 -4 0
-31 18 -61 40 -30 22 -57 40 -61 40 -3 0 -18 9 -33 19 -23 17 -53 20 -246 26
-189 5 -224 4 -249 -9z"/>
<path d="M12570 8516 c0 -2 7 -7 16 -10 8 -3 12 -2 9 4 -6 10 -25 14 -25 6z"/>
<path d="M9060 8363 c1 -10 119 -63 142 -63 10 0 38 -10 63 -22 32 -16 48 -19
56 -11 7 7 0 12 -27 17 -20 4 -53 16 -73 27 -20 10 -42 19 -49 19 -7 0 -25 6
-40 14 -39 20 -72 29 -72 19z"/>
<path d="M8500 8030 c0 -5 16 -10 35 -10 19 0 35 5 35 10 0 6 -16 10 -35 10
-19 0 -35 -4 -35 -10z"/>
<path d="M8648 8013 c23 -2 59 -2 80 0 20 2 1 4 -43 4 -44 0 -61 -2 -37 -4z"/>
<path d="M5840 7250 c0 -5 5 -10 11 -10 5 0 7 5 4 10 -3 6 -8 10 -11 10 -2 0
-4 -4 -4 -10z"/>
<path d="M12612 7099 c-84 -11 -176 -56 -180 -89 -2 -14 -7 -29 -12 -35 -15
-19 -21 -74 -15 -120 6 -34 12 -45 26 -45 10 0 20 -4 23 -8 3 -5 35 -17 72
-27 81 -22 130 -13 153 26 9 15 28 42 43 60 14 19 34 63 43 97 9 35 21 72 28
83 29 46 -59 74 -181 58z"/>
<path d="M5448 7003 c7 -3 16 -2 19 1 4 3 -2 6 -13 5 -11 0 -14 -3 -6 -6z"/>
<path d="M12524 6540 c-23 -9 -64 -60 -64 -79 0 -6 6 -21 13 -34 26 -47 40
-57 79 -57 30 0 47 8 78 36 36 33 40 41 40 84 0 45 -2 48 -31 54 -42 8 -89 7
-115 -4z"/>
<path d="M4675 6083 c-22 -2 -47 -6 -55 -10 -8 -3 -23 -7 -33 -8 -10 -1 -26
-9 -35 -18 -15 -16 -15 -17 1 -17 16 0 70 12 155 33 41 11 59 29 25 25 -10 -1
-36 -3 -58 -5z"/>
<path d="M11297 5586 c-48 -38 -29 -96 31 -96 46 0 87 72 52 90 -8 4 -24 12
-35 17 -16 8 -26 6 -48 -11z"/>
<path d="M10290 4791 c-14 -11 -37 -23 -52 -26 -30 -7 -34 -17 -44 -140 -3
-44 -10 -85 -15 -91 -11 -14 53 -79 99 -101 31 -15 46 -15 136 -4 55 7 104 15
108 17 4 2 10 25 14 49 3 25 10 48 14 50 5 3 12 30 15 60 6 45 4 60 -11 82
-10 16 -23 36 -29 47 -16 29 -98 67 -157 72 -43 4 -58 1 -78 -15z"/>
<path d="M2415 4782 c-6 -5 -62 -14 -125 -21 -63 -7 -122 -15 -130 -19 -8 -3
-26 -6 -40 -7 -14 -1 -30 -4 -35 -7 -6 -3 -65 -11 -132 -18 -68 -8 -123 -16
-123 -19 0 -3 35 -14 78 -24 42 -11 82 -22 87 -26 9 -7 192 -66 265 -87 l25
-6 -23 25 c-20 21 -23 32 -17 59 10 47 30 65 94 84 31 10 59 18 63 18 3 1 10
4 14 9 4 4 20 7 35 7 22 0 39 15 39 36 0 8 -66 4 -75 -4z"/>
<path d="M9785 4433 c-11 -2 -27 -7 -35 -10 -8 -4 -17 -7 -20 -7 -3 -1 -9 -4
-15 -8 -5 -3 -31 -9 -56 -13 l-47 -7 -7 -56 c-4 -32 -11 -61 -15 -67 -4 -5
-15 -57 -25 -115 -9 -57 -20 -109 -24 -115 -5 -5 -12 -35 -16 -65 -3 -30 -11
-71 -16 -89 -6 -27 -5 -39 6 -51 8 -9 15 -22 15 -28 0 -8 25 -12 76 -12 l76 0
188 174 187 175 7 63 c4 35 9 81 12 103 5 37 3 41 -28 56 -140 69 -201 86
-263 72z"/>
<path d="M11333 4155 c-23 -19 -46 -35 -51 -35 -5 0 -12 -8 -16 -17 -3 -10
-17 -36 -30 -58 -28 -45 -32 -70 -13 -79 6 -3 28 -16 48 -28 20 -13 62 -38 93
-56 l56 -33 49 23 c94 45 117 125 58 207 -18 25 -36 53 -39 62 -8 20 -63 49
-93 49 -12 0 -40 -16 -62 -35z"/>
<path d="M3318 4103 c-10 -2 -18 -9 -18 -14 0 -5 -10 -10 -22 -10 -16 -1 -18
-3 -6 -6 16 -4 78 22 78 32 0 5 -6 5 -32 -2z"/>
<path d="M2771 4018 c-51 -27 -37 -38 51 -38 92 0 104 -5 109 -37 l4 -22 45
20 45 21 -40 14 c-22 8 -56 22 -75 31 -46 22 -110 27 -139 11z"/>
<path d="M1273 3959 c-5 -5 -38 -17 -72 -25 -41 -9 -76 -25 -102 -47 -21 -17
-39 -34 -39 -37 0 -8 71 0 95 10 11 5 37 11 57 15 39 6 91 43 109 76 8 16 6
19 -14 19 -12 0 -28 -5 -34 -11z"/>
<path d="M8265 3318 c-112 -165 -120 -186 -91 -245 8 -15 20 -41 27 -58 27
-60 194 -210 257 -229 23 -8 76 48 99 103 8 20 23 54 34 77 10 22 19 52 19 65
0 14 7 34 15 45 10 13 14 44 14 99 0 89 -17 125 -61 125 -13 0 -28 4 -33 8 -6
5 -50 17 -100 27 -49 10 -94 22 -99 26 -22 20 -47 7 -81 -43z"/>
<path d="M445 3103 c-11 -2 -27 -7 -35 -10 -8 -3 -19 -5 -24 -4 -6 1 -19 -2
-30 -8 -12 -5 -34 -12 -50 -16 -27 -6 -28 -7 -11 -25 25 -28 41 -25 120 21 90
52 93 56 30 42z"/>
<path d="M155 3054 c-22 -8 -44 -19 -49 -24 -6 -6 -19 -10 -30 -10 -10 0 -17
-3 -14 -6 8 -7 130 16 143 27 5 5 17 9 28 9 10 0 15 5 12 10 -8 14 -42 11 -90
-6z"/>
<path d="M5273 2673 l-23 -15 26 -21 c25 -19 28 -19 39 -4 7 9 19 17 28 17 12
0 27 19 27 36 0 11 -78 1 -97 -13z"/>
<path d="M6055 2574 c-52 -56 -21 -154 48 -154 41 0 106 62 102 98 -7 57 -15
69 -53 76 -60 10 -72 7 -97 -20z"/>
<path d="M10965 2440 c-3 -5 -16 -10 -28 -10 -12 0 -37 -9 -55 -20 -18 -11
-38 -20 -45 -20 -28 0 -119 -56 -145 -89 -39 -51 -53 -149 -36 -254 11 -70 18
-87 58 -138 25 -33 46 -63 46 -67 0 -5 19 -14 43 -21 23 -7 50 -17 59 -22 33
-17 151 -10 196 11 22 11 50 20 60 20 10 0 34 10 53 23 26 17 35 32 42 67 4
25 13 55 19 67 6 12 8 29 5 37 -3 8 -2 18 2 20 5 3 14 41 21 85 12 77 11 81
-11 113 -13 18 -54 66 -93 106 -56 58 -77 74 -108 78 -21 4 -41 11 -44 15 -7
12 -31 11 -39 -1z"/>
<path d="M7050 2328 c-47 -10 -92 -43 -175 -125 l-50 -50 3 -117 c2 -92 6
-118 17 -123 8 -3 15 -10 15 -17 0 -15 96 -114 134 -137 46 -28 60 -24 111 33
52 58 79 105 90 158 4 19 12 40 17 47 5 6 13 65 18 130 l9 118 -47 48 c-50 50
-60 53 -142 35z"/>
<path d="M6390 2274 c-106 -39 -190 -123 -185 -185 1 -13 -1 -28 -5 -34 -4 -5
-13 -55 -20 -110 -7 -55 -16 -104 -20 -110 -7 -9 -30 -157 -30 -192 0 -25 72
-15 119 17 24 17 54 30 65 30 12 0 38 9 58 20 20 10 67 22 105 26 51 5 78 14
111 36 23 16 42 34 42 40 0 7 10 23 23 36 20 22 22 33 21 137 -1 155 -30 214
-130 266 -39 20 -126 33 -154 23z"/>
<path d="M1017 1853 c-4 -3 -7 -11 -7 -17 0 -6 5 -5 12 2 6 6 9 14 7 17 -3 3
-9 2 -12 -2z"/>
</g>
</svg>
